<svg width="12" height="20" viewBox="0 0 12 20" fill="none" xmlns="http://www.w3.org/2000/svg">
<path fill-rule="evenodd" clip-rule="evenodd" d="M2 1V0H0V1V10.5C0 11.5971 0.156329 12.4355 0.396448 13.1076C0.637782 13.783 0.948457 14.2449 1.1835 14.5774C1.54167 15.0839 2.05529 15.3887 2.52088 15.5773C2.99292 15.7686 3.49407 15.8723 3.92762 15.9305C4.36617 15.9893 4.76961 16.006 5.06119 16.0085C5.20808 16.0097 5.32932 16.0073 5.41576 16.0046C5.45904 16.0032 5.49377 16.0017 5.51883 16.0004L5.52714 16H8.33855L6.3415 17.7474L5.58892 18.4059L6.90593 19.9111L7.6585 19.2526L11.6585 15.7526C11.8755 15.5627 12 15.2884 12 15C12 14.7116 11.8755 14.4373 11.6585 14.2474L7.6585 10.7474L6.90593 10.0889L5.58892 11.5941L6.3415 12.2526L8.33855 14H5.5C5.47876 14 5.45752 14.0007 5.43633 14.002L5.43591 14.0021L5.43554 14.0021L5.42076 14.0028C5.40628 14.0036 5.38281 14.0046 5.35142 14.0056C5.28852 14.0076 5.19457 14.0095 5.07805 14.0085C4.84282 14.0066 4.5266 13.9929 4.1937 13.9482C3.8558 13.9029 3.53373 13.8298 3.27186 13.7237C3.00353 13.615 2.87254 13.5019 2.8165 13.4226C2.61993 13.1447 2.4306 12.8566 2.27984 12.4346C2.12786 12.0093 2 11.4029 2 10.5V1ZM5.43633 14.002L5.43659 14.0079C5.43625 14.002 5.43629 14.002 5.43633 14.002ZM5.43659 14.0079C5.43813 14.0344 5.44746 14.1818 5.5 15C5.56409 15.9979 5.56386 15.998 5.56361 15.998L5.56307 15.998L5.56181 15.9981L5.55854 15.9983L5.54908 15.9988L5.52714 16L5.43659 14.0079Z" fill="#FBFBFB"/>
</svg>
