<svg width="39" height="39" viewBox="0 0 39 39" fill="none" xmlns="http://www.w3.org/2000/svg">
<path d="M19.5 0C25.0059 0 29.6451 1.89091 33.4176 5.67273C37.1392 9.45455 39 14.0768 39 19.5394C39 24.9495 37.1392 29.5455 33.4176 33.3273C29.6451 37.1091 25.0059 39 19.5 39C14.0451 39 9.43137 37.1091 5.65882 33.3273C1.88627 29.5455 0 24.9495 0 19.5394C0 14.0768 1.88627 9.45455 5.65882 5.67273C9.43137 1.89091 14.0451 0 19.5 0ZM19.5 34.7455C23.8843 34.7455 27.5039 33.301 30.3588 30.4121C33.2137 27.4707 34.6412 23.8465 34.6412 19.5394C34.6412 15.1798 33.2137 11.5293 30.3588 8.58788C27.402 5.64647 23.7824 4.17576 19.5 4.17576C15.2686 4.17576 11.6745 5.64647 8.71765 8.58788C5.81176 11.4768 4.35882 15.1273 4.35882 19.5394C4.35882 23.8465 5.81176 27.4444 8.71765 30.3333C11.6745 33.2747 15.2686 34.7455 19.5 34.7455ZM27.3765 23.8727L27.6059 26.6303C27.7078 27.8909 27.9882 28.8101 28.4471 29.3879H23.7824C23.4255 28.8626 23.1961 27.9434 23.0941 26.6303L22.9412 24.503C22.8392 23.5051 22.6098 22.8222 22.2529 22.4545C21.9471 22.0869 21.3608 21.903 20.4941 21.903H16.3647V29.3879H11.9294V9.21818H20.8C22.9922 9.21818 24.7 9.74344 25.9235 10.7939C27.198 11.7919 27.8353 13.2101 27.8353 15.0485C27.8353 17.3071 26.9176 18.8566 25.0824 19.697C26.5608 20.4323 27.3255 21.8242 27.3765 23.8727ZM16.3647 13.1576V18.1212H20.5706C22.3549 18.1212 23.2471 17.2808 23.2471 15.6C23.2471 13.9717 22.3039 13.1576 20.4176 13.1576H16.3647Z" fill="white"/>
</svg>
