<svg width="134" height="134" viewBox="0 0 134 134" fill="none" xmlns="http://www.w3.org/2000/svg">
<circle cx="67" cy="67" r="66.7137" stroke="white" stroke-width="0.57265"/>
<path d="M26.3908 75V63.5146H30.4062C31.2063 63.5146 31.8662 63.653 32.3859 63.9296C32.9055 64.2026 33.2925 64.5708 33.5467 65.0344C33.801 65.4943 33.9281 66.0046 33.9281 66.5654C33.9281 67.0589 33.8402 67.4665 33.6645 67.788C33.4925 68.1095 33.2645 68.3638 32.9803 68.5507C32.6999 68.7376 32.3952 68.876 32.0662 68.9657V69.0779C32.4176 69.1003 32.7709 69.2237 33.1261 69.448C33.4813 69.6723 33.7785 69.9938 34.0178 70.4126C34.2571 70.8313 34.3767 71.3435 34.3767 71.9492C34.3767 72.525 34.2459 73.0428 33.9842 73.5026C33.7225 73.9625 33.3093 74.327 32.7448 74.5962C32.1802 74.8654 31.4456 75 30.5408 75H26.3908ZM27.7816 73.7662H30.5408C31.4493 73.7662 32.0942 73.5905 32.4756 73.2391C32.8607 72.8839 33.0532 72.4539 33.0532 71.9492C33.0532 71.5604 32.9541 71.2015 32.756 70.8724C32.5578 70.5397 32.2756 70.2742 31.9092 70.0761C31.5428 69.8742 31.1091 69.7733 30.6081 69.7733H27.7816V73.7662ZM27.7816 68.5619H30.3613C30.7801 68.5619 31.1577 68.4797 31.4942 68.3152C31.8344 68.1506 32.1036 67.9188 32.3017 67.6197C32.5036 67.3207 32.6046 66.9692 32.6046 66.5654C32.6046 66.0607 32.4289 65.6326 32.0774 65.2812C31.726 64.926 31.1689 64.7484 30.4062 64.7484H27.7816V68.5619ZM38.0528 63.5146V75H36.662V63.5146H38.0528ZM50.5322 69.2573C50.5322 70.4687 50.3135 71.5155 49.8761 72.3978C49.4387 73.2802 48.8386 73.9606 48.0759 74.4392C47.3132 74.9177 46.4421 75.157 45.4625 75.157C44.483 75.157 43.6119 74.9177 42.8492 74.4392C42.0865 73.9606 41.4864 73.2802 41.049 72.3978C40.6115 71.5155 40.3928 70.4687 40.3928 69.2573C40.3928 68.046 40.6115 66.9991 41.049 66.1168C41.4864 65.2344 42.0865 64.554 42.8492 64.0754C43.6119 63.5969 44.483 63.3576 45.4625 63.3576C46.4421 63.3576 47.3132 63.5969 48.0759 64.0754C48.8386 64.554 49.4387 65.2344 49.8761 66.1168C50.3135 66.9991 50.5322 68.046 50.5322 69.2573ZM49.1863 69.2573C49.1863 68.2628 49.0199 67.4235 48.6872 66.7393C48.3582 66.0551 47.9114 65.5373 47.3468 65.1858C46.786 64.8344 46.1579 64.6587 45.4625 64.6587C44.7671 64.6587 44.1371 64.8344 43.5726 65.1858C43.0118 65.5373 42.565 66.0551 42.2323 66.7393C41.9033 67.4235 41.7388 68.2628 41.7388 69.2573C41.7388 70.2518 41.9033 71.0912 42.2323 71.7753C42.565 72.4595 43.0118 72.9773 43.5726 73.3288C44.1371 73.6802 44.7671 73.8559 45.4625 73.8559C46.1579 73.8559 46.786 73.6802 47.3468 73.3288C47.9114 72.9773 48.3582 72.4595 48.6872 71.7753C49.0199 71.0912 49.1863 70.2518 49.1863 69.2573ZM60.7221 67.1038C60.5988 66.7262 60.4361 66.3878 60.2342 66.0887C60.0361 65.7859 59.7987 65.5279 59.522 65.3148C59.2491 65.1017 58.9388 64.9391 58.5911 64.8269C58.2434 64.7148 57.862 64.6587 57.447 64.6587C56.7666 64.6587 56.1478 64.8344 55.5907 65.1858C55.0337 65.5373 54.5906 66.0551 54.2616 66.7393C53.9326 67.4235 53.7681 68.2628 53.7681 69.2573C53.7681 70.2518 53.9345 71.0912 54.2672 71.7753C54.6 72.4595 55.0505 72.9773 55.6188 73.3288C56.1871 73.6802 56.8264 73.8559 57.5368 73.8559C58.1948 73.8559 58.7743 73.7157 59.2753 73.4353C59.78 73.1512 60.1726 72.7512 60.453 72.2352C60.7371 71.7155 60.8792 71.1042 60.8792 70.4014L61.3054 70.4911H57.8508V69.2573H62.2251V70.4911C62.2251 71.437 62.0232 72.2595 61.6194 72.9587C61.2194 73.6578 60.6661 74.1999 59.9594 74.585C59.2566 74.9664 58.449 75.157 57.5368 75.157C56.5198 75.157 55.6263 74.9177 54.8561 74.4392C54.0896 73.9606 53.4914 73.2802 53.0615 72.3978C52.6353 71.5155 52.4222 70.4687 52.4222 69.2573C52.4222 68.3488 52.5437 67.5319 52.7867 66.8066C53.0335 66.0775 53.3812 65.4569 53.8298 64.9447C54.2784 64.4325 54.8093 64.0399 55.4225 63.767C56.0357 63.4941 56.7105 63.3576 57.447 63.3576C58.0527 63.3576 58.6172 63.4492 59.1407 63.6324C59.6678 63.8119 60.137 64.068 60.5483 64.4007C60.9633 64.7297 61.3091 65.1241 61.5858 65.584C61.8625 66.0401 62.0531 66.5467 62.1578 67.1038H60.7221ZM64.6072 75V63.5146H68.488C69.3852 63.5146 70.1218 63.6679 70.6975 63.9745C71.2733 64.2773 71.6995 64.6942 71.9762 65.2251C72.2529 65.756 72.3912 66.3598 72.3912 67.0365C72.3912 67.7132 72.2529 68.3133 71.9762 68.8367C71.6995 69.3601 71.2752 69.7714 70.7032 70.0705C70.1311 70.3658 69.4002 70.5135 68.5104 70.5135H65.3699V69.2573H68.4655C69.0787 69.2573 69.5722 69.1676 69.9461 68.9881C70.3237 68.8087 70.5966 68.5544 70.7648 68.2254C70.9368 67.8927 71.0228 67.4964 71.0228 67.0365C71.0228 66.5766 70.9368 66.1747 70.7648 65.8308C70.5929 65.4868 70.3181 65.2214 69.9404 65.0344C69.5628 64.8437 69.0637 64.7484 68.4431 64.7484H65.998V75H64.6072ZM70.0134 69.8406L72.8398 75H71.2247L68.4431 69.8406H70.0134ZM75.1798 75H73.7217L77.939 63.5146H79.3747L83.592 75H82.1338L78.7017 65.3316H78.612L75.1798 75ZM75.7182 70.5135H81.5955V71.7473H75.7182V70.5135ZM85.3809 75V63.5146H92.2677V64.7484H86.7717V68.6292H91.7517V69.863H86.7717V75H85.3809ZM96.0405 63.5146V75H94.6497V63.5146H96.0405ZM99.3002 75H97.8421L102.059 63.5146H103.495L107.712 75H106.254L102.822 65.3316H102.732L99.3002 75ZM99.8386 70.5135H105.716V71.7473H99.8386V70.5135Z" fill="white"/>
</svg>
