<svg width="135" height="134" viewBox="0 0 135 134" fill="none" xmlns="http://www.w3.org/2000/svg">
<circle cx="67.5848" cy="67" r="66.7137" stroke="white" stroke-width="0.57265"/>
<path d="M36.1229 67.5674L38.1127 61.7558H40.3237L36.2966 73H33.8014L29.6796 61.7558H31.9537L33.9909 67.5674C34.4647 68.9993 34.8226 70.1679 35.0648 71.0733C35.3385 70.031 35.6912 68.8624 36.1229 67.5674ZM49.5257 61.7558V63.6667H43.3667V66.3198H48.9414V68.1517H43.3667V71.0891H49.4941V73H41.2347V61.7558H49.5257ZM59.6549 70.0152L59.7497 71.6892C59.7602 72.2262 59.876 72.6631 60.0971 73H57.9019C57.7124 72.6842 57.6124 72.2367 57.6019 71.6576L57.5545 70.4258C57.5229 69.7415 57.365 69.2677 57.0807 69.0045C56.807 68.7308 56.3648 68.5939 55.7542 68.5939H52.9747V73H50.8428V61.7558H55.9437C57.1966 61.7558 58.1704 62.0401 58.8653 62.6086C59.5601 63.1771 59.9076 63.951 59.9076 64.9301C59.9076 66.2777 59.2812 67.1726 58.0283 67.6148C58.5968 67.7938 59.0022 68.078 59.2443 68.4676C59.497 68.8466 59.6338 69.3625 59.6549 70.0152ZM52.9747 63.5088V66.9199H55.8174C56.4175 66.9199 56.8807 66.7725 57.2071 66.4777C57.544 66.1724 57.7124 65.7355 57.7124 65.167C57.7124 64.63 57.5387 64.2194 57.1913 63.9352C56.8544 63.6509 56.3701 63.5088 55.7384 63.5088H52.9747ZM69.7282 73.2527C68.1069 73.2527 66.7961 72.721 65.7959 71.6576C64.7852 70.5943 64.2799 69.1677 64.2799 67.3779C64.2799 65.5776 64.7799 64.1457 65.7801 63.0824C66.7698 62.0296 68.0858 61.5031 69.7282 61.5031C71.0443 61.5031 72.1655 61.8558 73.092 62.5612C74.0185 63.2666 74.5975 64.2879 74.8292 65.625H72.6656C72.4761 64.888 72.1234 64.33 71.6075 63.951C71.1022 63.5614 70.4757 63.3666 69.7282 63.3666C68.728 63.3666 67.9384 63.7246 67.3594 64.4405C66.7908 65.1459 66.5066 66.125 66.5066 67.3779C66.5066 68.6413 66.7908 69.6257 67.3594 70.3311C67.9279 71.0365 68.7175 71.3892 69.7282 71.3892C70.5073 71.3892 71.1759 71.1576 71.7339 70.6943C72.2919 70.2311 72.6288 69.5888 72.7446 68.7676H74.8765C74.7397 70.1995 74.1817 71.305 73.2026 72.084C72.234 72.8631 71.0758 73.2527 69.7282 73.2527ZM85.9387 73H83.6804L82.7961 70.5206H77.8688L77.0003 73H74.8051L79.0848 61.7558H81.58L85.9387 73ZM78.9427 67.4885L78.5163 68.7045H82.1486L81.7064 67.4885C81.3379 66.5514 80.8747 65.267 80.3167 63.6351C79.8745 64.9406 79.4165 66.2251 78.9427 67.4885ZM90.7942 73.2527C89.2676 73.2527 88.0831 72.9105 87.2409 72.2262C86.4091 71.5418 85.988 70.5627 85.9775 69.2888H88.0779C88.0884 70.0889 88.3253 70.6627 88.7885 71.0102C89.2623 71.3576 89.9519 71.5313 90.8573 71.5313C91.5943 71.5313 92.1576 71.3944 92.5471 71.1207C92.9367 70.8364 93.1314 70.4311 93.1314 69.9047C93.1314 69.4625 92.963 69.1256 92.6261 68.894C92.2997 68.6624 91.6996 68.4571 90.8257 68.2781L89.8782 68.0886C87.4672 67.6359 86.2617 66.4988 86.2617 64.6774C86.2617 63.7088 86.6302 62.9402 87.3672 62.3717C88.1042 61.7927 89.1254 61.5031 90.4309 61.5031C91.9154 61.5031 93.0367 61.819 93.7947 62.4507C94.5633 63.0824 94.9686 63.9668 95.0107 65.1038H92.9419C92.8998 64.4616 92.684 63.9878 92.2944 63.6825C91.9154 63.3772 91.3048 63.2245 90.4625 63.2245C89.8098 63.2245 89.3097 63.3456 88.9622 63.5877C88.6148 63.8299 88.4411 64.1721 88.4411 64.6142C88.4411 65.067 88.599 65.4144 88.9149 65.6565C89.2412 65.8987 89.815 66.104 90.6362 66.2724L91.6154 66.462C92.9314 66.7252 93.8789 67.12 94.458 67.6464C95.0476 68.1623 95.3424 68.8782 95.3424 69.7941C95.3424 70.8891 94.9423 71.7419 94.1422 72.3525C93.342 72.9526 92.226 73.2527 90.7942 73.2527ZM104.861 61.7558V63.6667H98.7017V66.3198H104.276V68.1517H98.7017V71.0891H104.829V73H96.5697V61.7558H104.861Z" fill="white"/>
</svg>
